<svg width="11" height="12" viewBox="0 0 11 12" fill="none" xmlns="http://www.w3.org/2000/svg">
<path d="M2.49414 1.06615C2.49406 0.974672 2.46083 0.885981 2.39999 0.814868C2.33915 0.743755 2.25438 0.694519 2.15982 0.675367C2.06525 0.656216 1.9666 0.668308 1.88032 0.709626C1.79403 0.750944 1.72533 0.818992 1.68566 0.902424L1.68453 0.904024C1.63435 0.999581 1.57688 1.09156 1.51258 1.17922C1.39023 1.34615 1.21715 1.53281 1.00178 1.66028C0.953099 1.68735 0.910645 1.72338 0.876923 1.76623C0.843201 1.80908 0.818894 1.85788 0.805437 1.90977C0.79198 1.96165 0.789645 2.01555 0.79857 2.0683C0.807495 2.12105 0.827499 2.17157 0.857402 2.21689C0.887305 2.2622 0.926501 2.30139 0.972676 2.33215C1.01885 2.3629 1.07107 2.38459 1.12625 2.39594C1.18144 2.40729 1.23846 2.40807 1.29397 2.39824C1.34948 2.3884 1.40234 2.36814 1.44943 2.33867C1.51991 2.29707 1.58643 2.2528 1.64845 2.2064V3.46611C1.64845 3.5722 1.693 3.67394 1.7723 3.74895C1.8516 3.82396 1.95915 3.8661 2.0713 3.8661C2.18344 3.8661 2.29099 3.82396 2.37029 3.74895C2.44959 3.67394 2.49414 3.5722 2.49414 3.46611V1.06615ZM10.1054 9.19934H5.31311L5.24715 9.20308C5.10445 9.21913 4.97362 9.28612 4.88139 9.39036C4.78916 9.4946 4.74249 9.62822 4.75091 9.76392C4.75933 9.89962 4.82221 10.0272 4.9267 10.1205C5.0312 10.2138 5.16941 10.2658 5.31311 10.266H10.1054L10.1708 10.2623C10.3134 10.2462 10.4442 10.1793 10.5364 10.0751C10.6287 9.97089 10.6754 9.83733 10.667 9.70168C10.6587 9.56602 10.5959 9.43849 10.4915 9.34513C10.3871 9.25177 10.249 9.19963 10.1054 9.19934ZM10.1054 5.73274H5.31311L5.24715 5.73647C5.10445 5.75253 4.97362 5.81952 4.88139 5.92376C4.78916 6.028 4.74249 6.16162 4.75091 6.29732C4.75933 6.43302 4.82221 6.56055 4.9267 6.65387C5.0312 6.74718 5.16941 6.79923 5.31311 6.79939H10.1054L10.1708 6.79565C10.3134 6.7796 10.4442 6.71265 10.5364 6.60847C10.6287 6.50429 10.6754 6.37073 10.667 6.23507C10.6587 6.09941 10.5959 5.97188 10.4915 5.87853C10.3871 5.78517 10.249 5.73302 10.1054 5.73274ZM10.1054 2.26613H5.31311L5.24715 2.26987C5.10445 2.28592 4.97362 2.35291 4.88139 2.45715C4.78916 2.56139 4.74249 2.69501 4.75091 2.83071C4.75933 2.96641 4.82221 3.09395 4.9267 3.18726C5.0312 3.28058 5.16941 3.33263 5.31311 3.33278H10.1054L10.1708 3.32905C10.3134 3.313 10.4442 3.24605 10.5364 3.14187C10.6287 3.03768 10.6754 2.90413 10.667 2.76847C10.6587 2.63281 10.5959 2.50528 10.4915 2.41192C10.3871 2.31856 10.249 2.26642 10.1054 2.26613ZM2.01492 5.21008C1.84578 5.18181 1.63379 5.24528 1.52442 5.34874C1.44426 5.4194 1.33824 5.45786 1.22869 5.45604C1.11915 5.45421 1.01463 5.41223 0.937157 5.33894C0.859684 5.26566 0.815307 5.16679 0.813374 5.06316C0.811442 4.95954 0.852104 4.85925 0.926796 4.78342C1.24026 4.48689 1.73302 4.35036 2.16263 4.42236C2.38646 4.45969 2.61649 4.55783 2.79126 4.74502C2.96942 4.93595 3.05794 5.18501 3.05794 5.46608C3.05794 5.79674 2.90515 6.04207 2.71628 6.2234C2.55954 6.37433 2.36109 6.49592 2.20548 6.59086L2.16038 6.61806C2.06684 6.67417 1.97633 6.73469 1.88919 6.79939H2.63509C2.74724 6.79939 2.85479 6.84153 2.93409 6.91654C3.01339 6.99155 3.05794 7.09329 3.05794 7.19938C3.05794 7.30546 3.01339 7.4072 2.93409 7.48222C2.85479 7.55723 2.74724 7.59937 2.63509 7.59937H1.22561C1.11346 7.59937 1.00591 7.55723 0.926609 7.48222C0.84731 7.4072 0.802761 7.30546 0.802761 7.19938C0.802761 6.49912 1.35753 6.1578 1.69074 5.953L1.72456 5.93167C1.90385 5.82234 2.02507 5.74767 2.11358 5.66287C2.18913 5.59034 2.21225 5.53594 2.21225 5.46608C2.21225 5.34714 2.17785 5.29648 2.15699 5.27408C2.11888 5.23816 2.06897 5.21559 2.01548 5.21008H2.01492ZM0.785847 10.9486C0.785847 10.9486 0.83828 10.9934 0.788102 10.9513L0.791485 10.954L0.798814 10.9609C0.82534 10.985 0.853598 11.0072 0.883383 11.0276C0.936944 11.0654 1.01136 11.1118 1.10721 11.1572C1.29946 11.2478 1.57516 11.3332 1.93035 11.3332C2.29118 11.3332 2.60465 11.2361 2.83298 11.0452C3.06301 10.8532 3.1769 10.5876 3.16844 10.3199C3.16142 10.1041 3.07668 9.89713 2.92826 9.7332C3.07429 9.57 3.16055 9.36734 3.16844 9.14548C3.17293 9.00861 3.14515 8.87251 3.08713 8.74705C3.02911 8.62159 2.94229 8.50993 2.83298 8.42016C2.60465 8.22976 2.29118 8.13269 1.93035 8.13269C1.57516 8.13269 1.29946 8.21696 1.10721 8.30869C1.00429 8.35716 0.907779 8.41695 0.819675 8.48682C0.812614 8.49257 0.805659 8.49844 0.798814 8.50442L0.791485 8.51135L0.788102 8.51402L0.786975 8.51562H0.785847L0.785283 8.51669C0.709447 8.59167 0.667384 8.69159 0.667975 8.79536C0.668566 8.89913 0.711766 8.99862 0.788452 9.07282C0.865138 9.14703 0.969307 9.19013 1.07896 9.19304C1.18862 9.19595 1.29518 9.15843 1.37614 9.08841C1.40977 9.06343 1.44605 9.0418 1.48439 9.02388C1.57403 8.98121 1.72118 8.93321 1.92978 8.93321C2.13275 8.93321 2.23198 8.98601 2.27257 9.02015C2.28849 9.03195 2.30127 9.04713 2.30989 9.06444C2.3185 9.08176 2.32271 9.10074 2.32218 9.11988C2.32021 9.14375 2.31303 9.16697 2.30109 9.18808C2.28916 9.20919 2.27273 9.22773 2.25284 9.24254C2.20266 9.28414 2.10456 9.33321 1.92978 9.33321C1.81764 9.33321 1.71009 9.37535 1.63079 9.45036C1.55149 9.52538 1.50694 9.62711 1.50694 9.7332C1.50694 9.83928 1.55149 9.94102 1.63079 10.016C1.71009 10.0911 1.81764 10.1332 1.92978 10.1332C2.10456 10.1332 2.20266 10.1812 2.25284 10.2223C2.30414 10.2649 2.32106 10.3108 2.32218 10.3455C2.32271 10.3647 2.31851 10.3837 2.30989 10.4011C2.30128 10.4185 2.2885 10.4338 2.27257 10.4457C2.23198 10.4793 2.13331 10.5327 1.92978 10.5327C1.77587 10.5357 1.62334 10.5047 1.48439 10.442C1.44602 10.4239 1.40975 10.4021 1.37614 10.3769C1.29518 10.3069 1.18862 10.2694 1.07896 10.2723C0.969307 10.2752 0.865138 10.3183 0.788452 10.3925C0.711766 10.4667 0.668566 10.5662 0.667975 10.67C0.667384 10.7737 0.709447 10.8737 0.785283 10.9486H0.785847ZM0.786975 8.51562H0.785847C0.789794 8.51295 0.898606 8.42709 0.785847 8.51562H0.786975Z" fill="#005C7D"/>
</svg>
