<svg width="13" height="12" viewBox="0 0 13 12" fill="none" xmlns="http://www.w3.org/2000/svg">
<path d="M7.377 5.17656C6.91287 4.73992 6.2835 4.49463 5.62726 4.49463C4.97103 4.49463 4.34165 4.73992 3.87753 5.17656L2.12723 6.82337C1.66309 7.2602 1.40234 7.85267 1.40234 8.47045C1.40234 9.08822 1.66309 9.68069 2.12723 10.1175C2.59136 10.5544 3.22086 10.7998 3.87724 10.7998C4.53363 10.7998 5.16313 10.5544 5.62726 10.1175L6.50213 9.29412" stroke="#005C7D" stroke-width="1.7" stroke-linecap="round" stroke-linejoin="round"/>
<path d="M5.625 6.8234C6.08913 7.26004 6.7185 7.50533 7.37474 7.50533C8.03097 7.50533 8.66035 7.26004 9.12447 6.8234L10.8748 5.17659C11.3389 4.73976 11.5997 4.14729 11.5997 3.52951C11.5997 2.91174 11.3389 2.31927 10.8748 1.88244C10.4106 1.4456 9.78114 1.2002 9.12475 1.2002C8.46837 1.2002 7.83887 1.4456 7.37474 1.88244L6.49987 2.70584" stroke="#005C7D" stroke-width="1.7" stroke-linecap="round" stroke-linejoin="round"/>
</svg>
