<svg width="10" height="12" viewBox="0 0 10 12" fill="none" xmlns="http://www.w3.org/2000/svg">
<path d="M7.90312 5.52187C8.42812 4.975 8.75 4.23594 8.75 3.42344V3.26406C8.75 1.58281 7.37344 0.21875 5.67656 0.21875H1.05312C0.817187 0.21875 0.625 0.410937 0.625 0.646875V11.2578C0.625 11.5125 0.83125 11.7188 1.08594 11.7188H6.06563C7.89375 11.7188 9.375 10.2469 9.375 8.42969V8.25781C9.375 7.11719 8.79062 6.1125 7.90312 5.52187ZM2.125 1.71875H5.63594C6.52813 1.71875 7.25 2.4125 7.25 3.27031V3.41875C7.25 4.275 6.52656 4.97031 5.63594 4.97031H2.125V1.71875ZM7.85312 8.42813C7.85312 9.41094 7.04531 10.2078 6.04844 10.2078H2.125V6.47969H6.04844C7.04531 6.47969 7.85312 7.27656 7.85312 8.25937V8.42813Z" fill="#005C7D"/>
</svg>
