<svg width="6" height="4" viewBox="0 0 6 4" fill="none" xmlns="http://www.w3.org/2000/svg">
<path d="M2.7234 3.26166C2.74665 3.28387 2.77775 3.30203 2.81403 3.31457C2.85032 3.32711 2.89069 3.33367 2.93168 3.33367C2.97267 3.33367 3.01304 3.32711 3.04933 3.31457C3.08561 3.30203 3.11671 3.28387 3.13996 3.26166L5.42036 1.095C5.44676 1.07001 5.46224 1.04073 5.46512 1.01036C5.468 0.979993 5.45817 0.949683 5.4367 0.922728C5.41523 0.895774 5.38294 0.873204 5.34334 0.857472C5.30374 0.841741 5.25835 0.833448 5.21209 0.833496H0.651274C0.60512 0.833622 0.55989 0.842021 0.52045 0.85779C0.48101 0.87356 0.448851 0.896103 0.427432 0.922995C0.406013 0.949888 0.396144 0.980112 0.398886 1.01042C0.401629 1.04072 0.416879 1.06997 0.442997 1.095L2.7234 3.26166Z" fill="#005C7D"/>
</svg>
