<svg width="15" height="14" viewBox="0 0 15 14" fill="none" xmlns="http://www.w3.org/2000/svg">
<path d="M5.07929 6.5C5.34809 6.5 5.60588 6.39464 5.79595 6.20711C5.98602 6.01957 6.0928 5.76522 6.0928 5.5C6.0928 5.23478 5.98602 4.98043 5.79595 4.79289C5.60588 4.60536 5.34809 4.5 5.07929 4.5C4.81049 4.5 4.55269 4.60536 4.36262 4.79289C4.17255 4.98043 4.06577 5.23478 4.06577 5.5C4.06577 5.76522 4.17255 6.01957 4.36262 6.20711C4.55269 6.39464 4.81049 6.5 5.07929 6.5ZM10.1469 5.5C10.1469 5.76522 10.0401 6.01957 9.85 6.20711C9.65993 6.39464 9.40214 6.5 9.13334 6.5C8.86454 6.5 8.60675 6.39464 8.41668 6.20711C8.22661 6.01957 8.11983 5.76522 8.11983 5.5C8.11983 5.23478 8.22661 4.98043 8.41668 4.79289C8.60675 4.60536 8.86454 4.5 9.13334 4.5C9.40214 4.5 9.65993 4.60536 9.85 4.79289C10.0401 4.98043 10.1469 5.23478 10.1469 5.5ZM3.83925 8.553C3.95883 8.49401 4.09719 8.48403 4.22419 8.52524C4.35119 8.56644 4.45654 8.6555 4.51729 8.773L4.51881 8.776L4.53604 8.805C4.55378 8.8335 4.58317 8.878 4.62574 8.9345C4.71138 9.047 4.84871 9.2025 5.04736 9.3595C5.43908 9.6685 6.08925 10 7.10631 10C8.12337 10 8.77354 9.6685 9.16527 9.36C9.36442 9.2025 9.50175 9.047 9.58689 8.9345C9.62565 8.88378 9.66135 8.83085 9.69381 8.776L9.69584 8.7725C9.75698 8.65504 9.86272 8.56621 9.98999 8.5254C10.1173 8.48459 10.2557 8.49511 10.3752 8.55466C10.4946 8.61421 10.5853 8.71796 10.6275 8.84327C10.6697 8.96858 10.66 9.10526 10.6004 9.2235V9.224L10.5994 9.225V9.226L10.5974 9.229L10.5933 9.2365C10.5776 9.2663 10.5607 9.29549 10.5426 9.324C10.4982 9.39639 10.4499 9.46648 10.3982 9.534C10.2248 9.76021 10.0232 9.96397 9.7982 10.1405C9.23976 10.5815 8.36966 11 7.10631 11C5.84297 11 4.97287 10.5815 4.41442 10.14C4.18966 9.96375 3.98825 9.76032 3.81493 9.5345C3.74297 9.43964 3.67762 9.34008 3.61932 9.2365L3.61527 9.229L3.61375 9.226L3.61324 9.2245L3.61273 9.2235C3.55272 9.10494 3.54287 8.96772 3.58535 8.84199C3.62782 8.71627 3.71915 8.61232 3.83925 8.553ZM7.10631 0C3.18807 0 0.0117188 3.134 0.0117188 7C0.0117188 10.866 3.18807 14 7.10631 14C11.0246 14 14.2009 10.866 14.2009 7C14.2009 3.134 11.0246 0 7.10631 0ZM1.02523 7C1.02523 3.6865 3.74804 1 7.10631 1C10.4646 1 13.1874 3.6865 13.1874 7C13.1874 10.3135 10.4646 13 7.10631 13C3.74804 13 1.02523 10.3135 1.02523 7Z" fill="#005C7D"/>
</svg>
