<svg width="10" height="12" viewBox="0 0 10 12" fill="none" xmlns="http://www.w3.org/2000/svg">
<path d="M9.46875 0.5H2.71875C2.65 0.5 2.59375 0.55625 2.59375 0.625V1.625C2.59375 1.69375 2.65 1.75 2.71875 1.75H5.55L3.1125 10.25H0.578125C0.509375 10.25 0.453125 10.3062 0.453125 10.375V11.375C0.453125 11.4438 0.509375 11.5 0.578125 11.5H7.32812C7.39687 11.5 7.45312 11.4438 7.45312 11.375V10.375C7.45312 10.3062 7.39687 10.25 7.32812 10.25H4.4125L6.85 1.75H9.46875C9.5375 1.75 9.59375 1.69375 9.59375 1.625V0.625C9.59375 0.55625 9.5375 0.5 9.46875 0.5Z" fill="#005C7D"/>
</svg>
