<svg width="15" height="10" viewBox="0 0 15 10" fill="none" xmlns="http://www.w3.org/2000/svg">
<path d="M1.48047 8.00022C1.76226 8.00022 2.03251 8.10557 2.23177 8.29311C2.43103 8.48065 2.54297 8.735 2.54297 9.00022C2.54297 9.26543 2.43103 9.51979 2.23177 9.70732C2.03251 9.89486 1.76226 10.0002 1.48047 10.0002C1.19868 10.0002 0.928425 9.89486 0.729168 9.70732C0.52991 9.51979 0.417969 9.26543 0.417969 9.00022C0.417969 8.735 0.52991 8.48065 0.729168 8.29311C0.928425 8.10557 1.19868 8.00022 1.48047 8.00022ZM4.3138 8.33355H13.8784C14.059 8.33374 14.2326 8.3988 14.3639 8.51545C14.4952 8.63209 14.5742 8.79152 14.5848 8.96115C14.5953 9.13077 14.5367 9.2978 14.4208 9.4281C14.3049 9.55841 14.1406 9.64215 13.9613 9.66222L13.8784 9.66688H4.3138C4.13332 9.66653 3.95979 9.60134 3.82865 9.48464C3.6975 9.36795 3.61864 9.20853 3.60815 9.03895C3.59766 8.86938 3.65635 8.70243 3.77222 8.5722C3.8881 8.44197 4.05242 8.35828 4.23164 8.33822L4.3138 8.33355H13.8784H4.3138ZM1.48047 4.00022C1.76226 4.00022 2.03251 4.10557 2.23177 4.29311C2.43103 4.48065 2.54297 4.735 2.54297 5.00022C2.54297 5.26543 2.43103 5.51979 2.23177 5.70732C2.03251 5.89486 1.76226 6.00022 1.48047 6.00022C1.19868 6.00022 0.928425 5.89486 0.729168 5.70732C0.52991 5.51979 0.417969 5.26543 0.417969 5.00022C0.417969 4.735 0.52991 4.48065 0.729168 4.29311C0.928425 4.10557 1.19868 4.00022 1.48047 4.00022ZM4.3138 4.33355H13.8784C14.059 4.33374 14.2326 4.3988 14.3639 4.51545C14.4952 4.63209 14.5742 4.79152 14.5848 4.96115C14.5953 5.13077 14.5367 5.2978 14.4208 5.4281C14.3049 5.55841 14.1406 5.64215 13.9613 5.66222L13.8784 5.66688H4.3138C4.13332 5.66653 3.95979 5.60134 3.82865 5.48464C3.6975 5.36795 3.61864 5.20853 3.60815 5.03895C3.59766 4.86938 3.65635 4.70243 3.77222 4.5722C3.8881 4.44197 4.05242 4.35828 4.23164 4.33822L4.3138 4.33355H13.8784H4.3138ZM1.48047 0.00554943C1.62226 0.0021029 1.76335 0.0254111 1.89542 0.0740995C2.02748 0.122788 2.14786 0.195871 2.24944 0.28904C2.35102 0.382208 2.43175 0.493576 2.48688 0.616577C2.542 0.739578 2.5704 0.871722 2.5704 1.00522C2.5704 1.13871 2.542 1.27085 2.48688 1.39386C2.43175 1.51686 2.35102 1.62822 2.24944 1.72139C2.14786 1.81456 2.02748 1.88764 1.89542 1.93633C1.76335 1.98502 1.62226 2.00833 1.48047 2.00488C1.19868 2.00488 0.928425 1.89953 0.729168 1.71199C0.52991 1.52445 0.417969 1.2701 0.417969 1.00488C0.417969 0.739666 0.52991 0.485312 0.729168 0.297776C0.928425 0.11024 1.19868 0.00488281 1.48047 0.00488281V0.00554943ZM4.3138 0.333549H13.8784C14.059 0.333738 14.2326 0.398802 14.3639 0.515448C14.4952 0.632094 14.5742 0.791518 14.5848 0.961146C14.5953 1.13077 14.5367 1.2978 14.4208 1.4281C14.3049 1.55841 14.1406 1.64215 13.9613 1.66222L13.8784 1.66688H4.3138C4.13332 1.66653 3.95979 1.60134 3.82865 1.48464C3.6975 1.36795 3.61864 1.20853 3.60815 1.03895C3.59766 0.869378 3.65635 0.702429 3.77222 0.572198C3.8881 0.441967 4.05242 0.358276 4.23164 0.338216L4.3138 0.333549H13.8784H4.3138Z" fill="#005C7D"/>
</svg>
