<svg width="8" height="6" viewBox="0 0 8 6" fill="none" xmlns="http://www.w3.org/2000/svg">
<path d="M6.76874 4.90283C7.39727 4.22016 7.33399 3.3435 7.33199 3.3335V0.666829C7.33199 0.578424 7.2969 0.493639 7.23443 0.431127C7.17197 0.368615 7.08724 0.333496 6.99891 0.333496H5.0004C4.63301 0.333496 4.33423 0.632496 4.33423 1.00016V3.3335C4.33423 3.4219 4.36932 3.50669 4.43179 3.5692C4.49425 3.63171 4.57897 3.66683 4.66731 3.66683H5.69255C5.68551 3.83163 5.63631 3.99185 5.54965 4.13216C5.38045 4.39916 5.06169 4.5815 4.6017 4.6735L4.33423 4.72683V5.66683H4.66731C5.59429 5.66683 6.30143 5.40983 6.76874 4.90283ZM3.10248 4.90283C3.73135 4.22016 3.66773 3.3435 3.66573 3.3335V0.666829C3.66573 0.578424 3.63064 0.493639 3.56817 0.431127C3.50571 0.368615 3.42098 0.333496 3.33264 0.333496H1.33414C0.966745 0.333496 0.667969 0.632496 0.667969 1.00016V3.3335C0.667969 3.4219 0.703061 3.50669 0.765527 3.5692C0.827992 3.63171 0.912714 3.66683 1.00105 3.66683H2.02629C2.01925 3.83163 1.97005 3.99185 1.88339 4.13216C1.71419 4.39916 1.39543 4.5815 0.935436 4.6735L0.667969 4.72683V5.66683H1.00105C1.92803 5.66683 2.63517 5.40983 3.10248 4.90283Z" fill="#005C7D"/>
</svg>
