<svg width="14" height="12" viewBox="0 0 14 12" fill="none" xmlns="http://www.w3.org/2000/svg">
<path d="M13.375 4.5H8.625C8.55625 4.5 8.5 4.55625 8.5 4.625V6.375C8.5 6.44375 8.55625 6.5 8.625 6.5H9.375C9.44375 6.5 9.5 6.44375 9.5 6.375V5.5H10.4375V10.5H9.71875C9.65 10.5 9.59375 10.5562 9.59375 10.625V11.375C9.59375 11.4438 9.65 11.5 9.71875 11.5H12.2812C12.35 11.5 12.4062 11.4438 12.4062 11.375V10.625C12.4062 10.5562 12.35 10.5 12.2812 10.5H11.5625V5.5H12.5V6.375C12.5 6.44375 12.5562 6.5 12.625 6.5H13.375C13.4438 6.5 13.5 6.44375 13.5 6.375V4.625C13.5 4.55625 13.4438 4.5 13.375 4.5ZM9.25 2.625V0.625C9.25 0.55625 9.19375 0.5 9.125 0.5H0.625C0.55625 0.5 0.5 0.55625 0.5 0.625V2.625C0.5 2.69375 0.55625 2.75 0.625 2.75H1.5C1.56875 2.75 1.625 2.69375 1.625 2.625V1.625H4.25V10.375H2.8125C2.74375 10.375 2.6875 10.4312 2.6875 10.5V11.375C2.6875 11.4438 2.74375 11.5 2.8125 11.5H6.9375C7.00625 11.5 7.0625 11.4438 7.0625 11.375V10.5C7.0625 10.4312 7.00625 10.375 6.9375 10.375H5.5V1.625H8.125V2.625C8.125 2.69375 8.18125 2.75 8.25 2.75H9.125C9.19375 2.75 9.25 2.69375 9.25 2.625Z" fill="#005C7D"/>
</svg>
