<svg width="10" height="12" viewBox="0 0 10 12" fill="none" xmlns="http://www.w3.org/2000/svg">
<path d="M9.875 10.5625H0.125C0.05625 10.5625 0 10.6156 0 10.6812V11.6313C0 11.6969 0.05625 11.75 0.125 11.75H9.875C9.94375 11.75 10 11.6969 10 11.6313V10.6812C10 10.6156 9.94375 10.5625 9.875 10.5625ZM5 9.375C6.08437 9.375 7.10312 8.95156 7.87187 8.18437C8.64062 7.41719 9.0625 6.39687 9.0625 5.3125V0.4375C9.0625 0.334375 8.97812 0.25 8.875 0.25H7.9375C7.83437 0.25 7.75 0.334375 7.75 0.4375V5.3125C7.75 6.82812 6.51562 8.0625 5 8.0625C3.48438 8.0625 2.25 6.82812 2.25 5.3125V0.4375C2.25 0.334375 2.16563 0.25 2.0625 0.25H1.125C1.02188 0.25 0.9375 0.334375 0.9375 0.4375V5.3125C0.9375 6.39687 1.36094 7.41562 2.12813 8.18437C2.89531 8.95312 3.91563 9.375 5 9.375Z" fill="#005C7D"/>
</svg>
