<svg width="25" height="25" viewBox="0 0 24 25" fill="none" xmlns="http://www.w3.org/2000/svg">
<path d="M19.6512 16.9487V8.0513C20.1277 7.92552 20.5638 7.67045 20.9149 7.31207C21.266 6.95369 21.5198 6.5048 21.6502 6.01108C21.7807 5.51735 21.7833 4.99644 21.6576 4.50136C21.532 4.00628 21.2827 3.5547 20.9351 3.19261C20.5875 2.83051 20.154 2.57082 19.6787 2.43996C19.2034 2.30911 18.7033 2.31177 18.2294 2.44768C17.7554 2.58358 17.3245 2.84787 16.9804 3.21365C16.6364 3.57943 16.3915 4.03363 16.2708 4.53002H7.72925C7.60849 4.03363 7.36363 3.57943 7.01959 3.21365C6.67554 2.84787 6.2446 2.58358 5.77063 2.44768C5.29666 2.31177 4.79658 2.30911 4.3213 2.43996C3.84602 2.57082 3.41251 2.83051 3.0649 3.19261C2.71729 3.5547 2.46798 4.00628 2.34237 4.50136C2.21675 4.99644 2.2193 5.51735 2.34977 6.01108C2.48024 6.5048 2.73396 6.95369 3.0851 7.31207C3.43625 7.67045 3.87228 7.92552 4.34882 8.0513V16.9487C3.87228 17.0745 3.43625 17.3296 3.0851 17.6879C2.73396 18.0463 2.48024 18.4952 2.34977 18.9889C2.2193 19.4826 2.21675 20.0036 2.34237 20.4986C2.46798 20.9937 2.71729 21.4453 3.0649 21.8074C3.41251 22.1695 3.84602 22.4292 4.3213 22.56C4.79658 22.6909 5.29666 22.6882 5.77063 22.5523C6.2446 22.4164 6.67554 22.1521 7.01959 21.7864C7.36363 21.4206 7.60849 20.9664 7.72925 20.47H16.2708C16.3915 20.9664 16.6364 21.4206 16.9804 21.7864C17.3245 22.1521 17.7554 22.4164 18.2294 22.5523C18.7033 22.6882 19.2034 22.6909 19.6787 22.56C20.154 22.4292 20.5875 22.1695 20.9351 21.8074C21.2827 21.4453 21.532 20.9937 21.6576 20.4986C21.7833 20.0036 21.7807 19.4826 21.6502 18.9889C21.5198 18.4952 21.266 18.0463 20.9149 17.6879C20.5638 17.3296 20.1277 17.0745 19.6512 16.9487ZM18.9556 3.80548C19.2308 3.80548 19.4997 3.89047 19.7285 4.04969C19.9573 4.20892 20.1356 4.43524 20.2409 4.70002C20.3461 4.96481 20.3737 5.25617 20.32 5.53727C20.2663 5.81836 20.1338 6.07657 19.9393 6.27922C19.7447 6.48188 19.4969 6.61989 19.227 6.67581C18.9572 6.73172 18.6775 6.70302 18.4233 6.59335C18.1691 6.48367 17.9518 6.29794 17.7989 6.05963C17.6461 5.82133 17.5645 5.54117 17.5645 5.25456C17.5645 4.87024 17.7111 4.50166 17.9719 4.22991C18.2328 3.95815 18.5867 3.80548 18.9556 3.80548ZM3.65326 5.25456C3.65326 4.96796 3.73485 4.6878 3.88771 4.4495C4.04056 4.21119 4.25783 4.02546 4.51202 3.91578C4.76622 3.8061 5.04593 3.77741 5.31578 3.83332C5.58563 3.88923 5.8335 4.02725 6.02806 4.22991C6.22261 4.43256 6.3551 4.69077 6.40878 4.97186C6.46245 5.25296 6.4349 5.54432 6.32961 5.80911C6.22432 6.07389 6.04602 6.30021 5.81725 6.45944C5.58848 6.61866 5.31952 6.70365 5.04438 6.70365C4.67543 6.70365 4.3216 6.55098 4.06071 6.27922C3.79982 6.00747 3.65326 5.63889 3.65326 5.25456ZM5.04438 21.1945C4.76924 21.1945 4.50028 21.1095 4.27152 20.9503C4.04275 20.7911 3.86444 20.5648 3.75915 20.3C3.65386 20.0352 3.62631 19.7438 3.67999 19.4627C3.73367 19.1816 3.86616 18.9234 4.06071 18.7208C4.25526 18.5181 4.50314 18.3801 4.77299 18.3242C5.04284 18.2683 5.32255 18.297 5.57674 18.4067C5.83094 18.5163 6.0482 18.7021 6.20106 18.9404C6.35392 19.1787 6.43551 19.4588 6.43551 19.7454C6.43551 20.1298 6.28894 20.4983 6.02806 20.7701C5.76717 21.0419 5.41333 21.1945 5.04438 21.1945ZM16.2708 19.0209H7.72925C7.60436 18.5225 7.35421 18.0678 7.00456 17.7036C6.65491 17.3394 6.21839 17.0788 5.73994 16.9487V8.0513C6.21839 7.9212 6.65491 7.66063 7.00456 7.29642C7.35421 6.9322 7.60436 6.47749 7.72925 5.97911H16.2708C16.3956 6.47749 16.6458 6.9322 16.9954 7.29642C17.3451 7.66063 17.7816 7.9212 18.2601 8.0513V16.9487C17.7816 17.0788 17.3451 17.3394 16.9954 17.7036C16.6458 18.0678 16.3956 18.5225 16.2708 19.0209ZM18.9556 21.1945C18.6805 21.1945 18.4115 21.1095 18.1828 20.9503C17.954 20.7911 17.7757 20.5648 17.6704 20.3C17.5651 20.0352 17.5375 19.7438 17.5912 19.4627C17.6449 19.1816 17.7774 18.9234 17.9719 18.7208C18.1665 18.5181 18.4144 18.3801 18.6842 18.3242C18.9541 18.2683 19.2338 18.297 19.488 18.4067C19.7422 18.5163 19.9594 18.7021 20.1123 18.9404C20.2652 19.1787 20.3467 19.4588 20.3467 19.7454C20.3467 20.1298 20.2002 20.4983 19.9393 20.7701C19.6784 21.0419 19.3246 21.1945 18.9556 21.1945Z" fill="#09D1D0"/>
<path d="M15.75 8.59375H8.25V10.1562H11.25V17.1875H12.75V10.1562H15.75V8.59375Z" fill="#09D1D0"/>
</svg>
