<svg width="22" height="22" viewBox="0 0 22 22" fill="none" xmlns="http://www.w3.org/2000/svg">
<path d="M22 11C22 13.9174 20.8411 16.7153 18.7782 18.7782C16.7153 20.8411 13.9174 22 11 22C8.08262 22 5.28473 20.8411 3.22183 18.7782C1.15893 16.7153 0 13.9174 0 11C0 8.08262 1.15893 5.28473 3.22183 3.22183C5.28473 1.15893 8.08262 0 11 0C13.9174 0 16.7153 1.15893 18.7782 3.22183C20.8411 5.28473 22 8.08262 22 11ZM7.36175 6.38825C7.23266 6.25916 7.05757 6.18663 6.875 6.18663C6.69243 6.18663 6.51734 6.25916 6.38825 6.38825C6.25916 6.51734 6.18663 6.69243 6.18663 6.875C6.18663 7.05757 6.25916 7.23266 6.38825 7.36175L10.0279 11L6.38825 14.6383C6.32433 14.7022 6.27362 14.7781 6.23903 14.8616C6.20444 14.9451 6.18663 15.0346 6.18663 15.125C6.18663 15.2154 6.20444 15.3049 6.23903 15.3884C6.27362 15.4719 6.32433 15.5478 6.38825 15.6117C6.51734 15.7408 6.69243 15.8134 6.875 15.8134C6.9654 15.8134 7.05491 15.7956 7.13843 15.761C7.22194 15.7264 7.29783 15.6757 7.36175 15.6117L11 11.9721L14.6383 15.6117C14.7022 15.6757 14.7781 15.7264 14.8616 15.761C14.9451 15.7956 15.0346 15.8134 15.125 15.8134C15.2154 15.8134 15.3049 15.7956 15.3884 15.761C15.4719 15.7264 15.5478 15.6757 15.6117 15.6117C15.6757 15.5478 15.7264 15.4719 15.761 15.3884C15.7956 15.3049 15.8134 15.2154 15.8134 15.125C15.8134 15.0346 15.7956 14.9451 15.761 14.8616C15.7264 14.7781 15.6757 14.7022 15.6117 14.6383L11.9721 11L15.6117 7.36175C15.6757 7.29783 15.7264 7.22194 15.761 7.13843C15.7956 7.05491 15.8134 6.9654 15.8134 6.875C15.8134 6.7846 15.7956 6.69509 15.761 6.61157C15.7264 6.52806 15.6757 6.45217 15.6117 6.38825C15.5478 6.32433 15.4719 6.27362 15.3884 6.23903C15.3049 6.20444 15.2154 6.18663 15.125 6.18663C15.0346 6.18663 14.9451 6.20444 14.8616 6.23903C14.7781 6.27362 14.7022 6.32433 14.6383 6.38825L11 10.0279L7.36175 6.38825Z" fill="#FC4E20"/>
</svg>
