<svg width="20" height="20" viewBox="0 0 20 20" fill="none" xmlns="http://www.w3.org/2000/svg">
<path d="M0.398438 2.2085C0.398438 1.71122 0.58808 1.2343 0.925645 0.882671C1.26321 0.53104 1.72105 0.333496 2.19844 0.333496L11.7984 0.333496C12.2758 0.333496 12.7337 0.53104 13.0712 0.882671C13.4088 1.2343 13.5984 1.71122 13.5984 2.2085V4.7085C13.5984 5.20578 13.4088 5.68269 13.0712 6.03432C12.7337 6.38595 12.2758 6.5835 11.7984 6.5835H2.19844C1.72105 6.5835 1.26321 6.38595 0.925645 6.03432C0.58808 5.68269 0.398438 5.20578 0.398438 4.7085L0.398438 2.2085ZM2.19844 1.5835C2.03931 1.5835 1.8867 1.64934 1.77417 1.76655C1.66165 1.88376 1.59844 2.04274 1.59844 2.2085V4.7085C1.59844 4.87426 1.66165 5.03323 1.77417 5.15044C1.8867 5.26765 2.03931 5.3335 2.19844 5.3335H11.7984C11.9576 5.3335 12.1102 5.26765 12.2227 5.15044C12.3352 5.03323 12.3984 4.87426 12.3984 4.7085V2.2085C12.3984 2.04274 12.3352 1.88376 12.2227 1.76655C12.1102 1.64934 11.9576 1.5835 11.7984 1.5835H2.19844Z" fill="#09D1D0"/>
<path d="M9.78604 3.86225L9.31084 3.36725C9.26877 3.32354 9.24012 3.26781 9.22849 3.20712C9.21688 3.14642 9.22282 3.0835 9.24557 3.02633C9.26832 2.96916 9.30685 2.92031 9.35629 2.88598C9.40572 2.85165 9.46383 2.83339 9.52324 2.8335H10.4736C10.5331 2.83339 10.5912 2.85165 10.6406 2.88598C10.69 2.92031 10.7286 2.96916 10.7513 3.02633C10.7741 3.0835 10.78 3.14642 10.7684 3.20712C10.7568 3.26781 10.7281 3.32354 10.686 3.36725L10.2108 3.86225C10.183 3.89135 10.1499 3.91444 10.1134 3.93019C10.077 3.94595 10.0379 3.95406 9.99844 3.95406C9.95898 3.95406 9.9199 3.94595 9.88346 3.93019C9.84701 3.91444 9.8139 3.89135 9.78604 3.86225ZM0.398438 10.3335C0.398438 9.67046 0.651294 9.03457 1.10138 8.56573C1.55147 8.09689 2.16192 7.8335 2.79844 7.8335H17.1984C17.835 7.8335 18.4454 8.09689 18.8955 8.56573C19.3456 9.03457 19.5984 9.67046 19.5984 10.3335V16.5835C19.5984 17.2465 19.3456 17.8824 18.8955 18.3513C18.4454 18.8201 17.835 19.0835 17.1984 19.0835H2.79844C2.16192 19.0835 1.55147 18.8201 1.10138 18.3513C0.651294 17.8824 0.398438 17.2465 0.398438 16.5835V10.3335ZM1.59844 14.0835V16.5835C1.59844 16.915 1.72487 17.233 1.94991 17.4674C2.17495 17.7018 2.48018 17.8335 2.79844 17.8335H17.1984C17.5167 17.8335 17.8219 17.7018 18.047 17.4674C18.272 17.233 18.3984 16.915 18.3984 16.5835V14.0835H1.59844ZM18.3984 12.8335V10.3335C18.3984 10.002 18.272 9.68403 18.047 9.44961C17.8219 9.21519 17.5167 9.0835 17.1984 9.0835H2.79844C2.48018 9.0835 2.17495 9.21519 1.94991 9.44961C1.72487 9.68403 1.59844 10.002 1.59844 10.3335V12.8335H18.3984ZM2.79844 10.9585C2.79844 10.7927 2.86165 10.6338 2.97417 10.5166C3.0867 10.3993 3.23931 10.3335 3.39844 10.3335H14.1984C14.3576 10.3335 14.5102 10.3993 14.6227 10.5166C14.7352 10.6338 14.7984 10.7927 14.7984 10.9585C14.7984 11.1243 14.7352 11.2832 14.6227 11.4004C14.5102 11.5176 14.3576 11.5835 14.1984 11.5835H3.39844C3.23931 11.5835 3.0867 11.5176 2.97417 11.4004C2.86165 11.2832 2.79844 11.1243 2.79844 10.9585ZM2.79844 15.9585C2.79844 15.7927 2.86165 15.6338 2.97417 15.5166C3.0867 15.3993 3.23931 15.3335 3.39844 15.3335H10.5984C10.7576 15.3335 10.9102 15.3993 11.0227 15.5166C11.1352 15.6338 11.1984 15.7927 11.1984 15.9585C11.1984 16.1243 11.1352 16.2832 11.0227 16.4004C10.9102 16.5176 10.7576 16.5835 10.5984 16.5835H3.39844C3.23931 16.5835 3.0867 16.5176 2.97417 16.4004C2.86165 16.2832 2.79844 16.1243 2.79844 15.9585Z" fill="#09D1D0"/>
</svg>
