<svg width="20" height="15" viewBox="0 0 20 15" fill="none" xmlns="http://www.w3.org/2000/svg">
<path d="M18.5312 0.3125H1.46875C1.14552 0.3125 0.835523 0.438709 0.606964 0.663362C0.378404 0.888015 0.25 1.19271 0.25 1.51042V13.4896C0.25 13.8073 0.378404 14.112 0.606964 14.3366C0.835523 14.5613 1.14552 14.6875 1.46875 14.6875H18.5312C18.8545 14.6875 19.1645 14.5613 19.393 14.3366C19.6216 14.112 19.75 13.8073 19.75 13.4896V1.51042C19.75 1.19271 19.6216 0.888015 19.393 0.663362C19.1645 0.438709 18.8545 0.3125 18.5312 0.3125ZM17.5928 13.4896H2.48031L6.74594 9.15312L5.86844 8.32057L1.46875 12.7948V2.42083L9.04328 9.82995C9.27163 10.0531 9.58052 10.1783 9.9025 10.1783C10.2245 10.1783 10.5334 10.0531 10.7617 9.82995L18.5312 2.23516V12.7169L14.0462 8.30859L13.187 9.15312L17.5928 13.4896ZM2.26703 1.51042H17.5441L9.9025 8.97943L2.26703 1.51042Z" fill="#09D1D0"/>
</svg>
