<svg width="18" height="18" viewBox="0 0 18 18" fill="none" xmlns="http://www.w3.org/2000/svg">
<path d="M11.8594 4.43438C11.9281 4.53102 11.9732 4.64242 11.9911 4.75963C12.009 4.87684 11.9992 4.99662 11.9625 5.10938L8.9625 14.1094C8.91442 14.2602 8.8193 14.3916 8.69107 14.4844C8.56285 14.5772 8.40827 14.6265 8.25 14.625C8.17029 14.6262 8.09097 14.6136 8.01562 14.5875C7.92205 14.5567 7.83546 14.5078 7.76079 14.4436C7.68612 14.3793 7.62484 14.301 7.58044 14.2131C7.53604 14.1252 7.50939 14.0294 7.50203 13.9311C7.49466 13.8329 7.50671 13.7342 7.5375 13.6406L10.2094 5.625H6.75C6.55109 5.625 6.36032 5.54598 6.21967 5.40533C6.07902 5.26468 6 5.07391 6 4.875C6 4.67609 6.07902 4.48532 6.21967 4.34467C6.36032 4.20402 6.55109 4.125 6.75 4.125H11.25C11.369 4.12384 11.4864 4.15135 11.5925 4.2052C11.6986 4.25905 11.7901 4.33766 11.8594 4.43438ZM18 1.5V16.5C18 16.8978 17.842 17.2794 17.5607 17.5607C17.2794 17.842 16.8978 18 16.5 18H1.5C1.10218 18 0.720644 17.842 0.43934 17.5607C0.158035 17.2794 0 16.8978 0 16.5V1.5C0 1.10218 0.158035 0.720644 0.43934 0.43934C0.720644 0.158035 1.10218 0 1.5 0H16.5C16.8978 0 17.2794 0.158035 17.5607 0.43934C17.842 0.720644 18 1.10218 18 1.5ZM16.5 16.5V1.5H1.5V16.5H16.5Z" fill="#09D1D0"/>
</svg>
