<svg width="194" height="34" viewBox="0 0 194 34" fill="none" xmlns="http://www.w3.org/2000/svg">
<path d="M32.562 18.998V10.443C32.562 10.2226 32.6496 10.0112 32.8054 9.85539C32.9613 9.69955 33.1726 9.612 33.393 9.612H37.23C37.4504 9.612 37.6618 9.69955 37.8176 9.85539C37.9735 10.0112 38.061 10.2226 38.061 10.443V18.998C38.061 21.858 39.454 23.068 41.507 23.068C43.56 23.068 44.954 21.858 44.954 18.998V10.443C44.954 10.3339 44.9755 10.2258 45.0173 10.125C45.059 10.0242 45.1203 9.93256 45.1974 9.85539C45.2746 9.77823 45.3662 9.71702 45.467 9.67525C45.5678 9.63349 45.6759 9.612 45.785 9.612H49.623C49.8434 9.612 50.0548 9.69955 50.2106 9.85539C50.3665 10.0112 50.454 10.2226 50.454 10.443V18.998C50.454 25.084 46.861 28.198 41.507 28.198C36.153 28.198 32.561 25.118 32.561 18.998" fill="#0B1636"/>
<path d="M54.1878 3.19999C54.2289 2.38002 54.5835 1.60718 55.1784 1.04134C55.7732 0.475498 56.5628 0.159943 57.3838 0.159943C58.2048 0.159943 58.9944 0.475498 59.5893 1.04134C60.1842 1.60718 60.5388 2.38002 60.5798 3.19999C60.6015 3.63315 60.5349 4.06619 60.3841 4.47282C60.2333 4.87944 60.0013 5.25117 59.7024 5.56541C59.4035 5.87965 59.0439 6.12985 58.6453 6.30082C58.2467 6.47178 57.8175 6.55994 57.3838 6.55994C56.9501 6.55994 56.521 6.47178 56.1224 6.30082C55.7238 6.12985 55.3641 5.87965 55.0652 5.56541C54.7663 5.25117 54.5344 4.87944 54.3836 4.47282C54.2327 4.06619 54.1662 3.63315 54.1878 3.19999Z" fill="#D88B31"/>
<path d="M55.4439 9.612H59.3209C59.536 9.612 59.7422 9.69744 59.8943 9.84954C60.0464 10.0016 60.1319 10.2079 60.1319 10.423V26.901C60.1316 27.1189 60.0449 27.3279 59.8908 27.4819C59.7367 27.636 59.5278 27.7227 59.3099 27.723H55.4529C55.2349 27.7227 55.026 27.636 54.8719 27.4819C54.7178 27.3279 54.6311 27.1189 54.6309 26.901V10.423C54.6309 10.2079 54.7163 10.0016 54.8684 9.84954C55.0205 9.69744 55.2268 9.612 55.4419 9.612" fill="#0B1636"/>
<path d="M64.118 22.905L72.966 14.378H65.224C65.0119 14.378 64.8084 14.2937 64.6584 14.1437C64.5083 13.9937 64.424 13.7902 64.424 13.578V10.412C64.424 10.1998 64.5083 9.99634 64.6584 9.84631C64.8084 9.69628 65.0119 9.612 65.224 9.612H79.389C79.6012 9.612 79.8047 9.69628 79.9547 9.84631C80.1048 9.99634 80.189 10.1998 80.189 10.412V13.853C80.1892 13.9607 80.1675 14.0673 80.1254 14.1665C80.0833 14.2656 80.0216 14.3553 79.944 14.43L71.096 22.953H79.73C79.948 22.9533 80.1569 23.04 80.311 23.194C80.4651 23.3481 80.5518 23.5571 80.552 23.775V26.896C80.5518 27.1139 80.4651 27.3228 80.311 27.4769C80.1569 27.631 79.948 27.7177 79.73 27.718H64.673C64.4609 27.718 64.2574 27.6337 64.1074 27.4837C63.9573 27.3337 63.873 27.1302 63.873 26.918V23.481C63.8731 23.3735 63.8948 23.267 63.9369 23.168C63.979 23.0691 64.0406 22.9796 64.118 22.905Z" fill="#0B1636"/>
<path d="M85.416 3.74598H101.104C101.333 3.74598 101.553 3.83701 101.715 3.99904C101.877 4.16107 101.968 4.38083 101.968 4.60998V8.38198C101.968 8.61113 101.877 8.83089 101.715 8.99292C101.553 9.15495 101.333 9.24598 101.104 9.24598H90.492V12.986H98.977C99.2062 12.986 99.4259 13.077 99.588 13.239C99.75 13.4011 99.841 13.6208 99.841 13.85V17.256C99.841 17.4851 99.75 17.7049 99.588 17.8669C99.4259 18.029 99.2062 18.12 98.977 18.12H90.492V26.862C90.492 27.0911 90.401 27.3109 90.239 27.4729C90.0769 27.635 89.8572 27.726 89.628 27.726H85.416C85.1869 27.726 84.9671 27.635 84.8051 27.4729C84.6431 27.3109 84.552 27.0911 84.552 26.862V4.60698C84.552 4.37783 84.6431 4.15807 84.8051 3.99604C84.9671 3.83401 85.1869 3.74298 85.416 3.74298" fill="#0B1636"/>
<path d="M103.544 18.668C103.544 13.168 107.577 9.13498 113.296 9.13498C119.015 9.13498 123.049 13.168 123.049 18.668C123.049 24.168 119.016 28.201 113.296 28.201C107.576 28.201 103.544 24.168 103.544 18.668ZM117.476 18.668C117.505 18.1011 117.418 17.5342 117.222 17.0018C117.025 16.4694 116.722 15.9826 116.331 15.5711C115.94 15.1595 115.469 14.8318 114.947 14.6079C114.426 14.384 113.864 14.2685 113.296 14.2685C112.729 14.2685 112.167 14.384 111.645 14.6079C111.124 14.8318 110.653 15.1595 110.262 15.5711C109.871 15.9826 109.568 16.4694 109.371 17.0018C109.174 17.5342 109.088 18.1011 109.117 18.668C109.088 19.2349 109.174 19.8018 109.371 20.3342C109.568 20.8666 109.871 21.3533 110.262 21.7649C110.653 22.1764 111.124 22.5041 111.645 22.7281C112.167 22.952 112.729 23.0675 113.296 23.0675C113.864 23.0675 114.426 22.952 114.947 22.7281C115.469 22.5041 115.94 22.1764 116.331 21.7649C116.722 21.3533 117.025 20.8666 117.222 20.3342C117.418 19.8018 117.505 19.2349 117.476 18.668Z" fill="#0B1636"/>
<path d="M125.909 17.421C125.909 11.775 129.209 9.13498 134.049 9.13498C138.889 9.13498 142.149 11.735 142.188 17.458V17.568H136.688V17.421C136.688 15.001 135.588 14.268 134.048 14.268C132.508 14.268 131.408 15.001 131.408 17.421V26.928C131.408 27.1393 131.324 27.342 131.175 27.4919C131.026 27.6418 130.824 27.7267 130.613 27.728H126.704C126.493 27.7267 126.29 27.6418 126.141 27.4919C125.993 27.342 125.909 27.1393 125.909 26.928V17.421Z" fill="#0B1636"/>
<path d="M144.425 17.531C144.425 11.702 147.798 9.13098 152.198 9.13098C153.372 9.07847 154.542 9.31549 155.603 9.8212C156.664 10.3269 157.585 11.0858 158.284 12.031C158.98 11.0826 159.9 10.3214 160.962 9.81539C162.024 9.30934 163.195 9.07421 164.37 9.13098C168.77 9.13098 172.143 11.698 172.143 17.531V26.931C172.142 27.1414 172.057 27.3429 171.909 27.4917C171.76 27.6405 171.558 27.7247 171.348 27.726H167.438C167.227 27.7247 167.026 27.6405 166.877 27.4917C166.728 27.3429 166.644 27.1414 166.643 26.931V17.531C166.643 15.112 165.47 14.268 163.82 14.268C162.207 14.268 161.033 15.111 161.033 17.531V26.931C161.032 27.1414 160.947 27.3429 160.799 27.4917C160.65 27.6405 160.448 27.7247 160.238 27.726H156.329C156.117 27.726 155.915 27.6424 155.765 27.4934C155.615 27.3445 155.53 27.1423 155.529 26.931V17.531C155.529 15.112 154.356 14.268 152.743 14.268C151.093 14.268 149.92 15.111 149.92 17.531V26.931C149.918 27.1414 149.834 27.3429 149.686 27.4917C149.537 27.6405 149.335 27.7247 149.125 27.726H145.22C145.009 27.7247 144.808 27.6405 144.659 27.4917C144.51 27.3429 144.426 27.1414 144.425 26.931V17.531Z" fill="#0B1636"/>
<path d="M174.508 18.888C174.508 13.059 178.541 9.13498 184.297 9.13498C189.98 9.13498 193.94 12.911 193.94 18.851V25.8C193.94 26.4415 193.685 27.0568 193.231 27.5105C192.778 27.9641 192.162 28.219 191.521 28.219H191.299C190.657 28.219 190.042 27.9641 189.588 27.5105C189.135 27.0568 188.88 26.4415 188.88 25.8V24.718C188.414 25.8033 187.627 26.7194 186.624 27.3423C185.62 27.9653 184.45 28.265 183.271 28.201C179.238 28.201 174.508 25.194 174.508 18.888ZM188.44 18.668C188.468 18.1019 188.38 17.536 188.182 17.0047C187.985 16.4735 187.681 15.9879 187.29 15.5774C186.9 15.167 186.429 14.8402 185.908 14.6169C185.387 14.3936 184.827 14.2785 184.26 14.2785C183.693 14.2785 183.132 14.3936 182.611 14.6169C182.09 14.8402 181.62 15.167 181.229 15.5774C180.838 15.9879 180.535 16.4735 180.337 17.0047C180.14 17.536 180.052 18.1019 180.08 18.668C180.052 19.2341 180.14 19.8 180.337 20.3312C180.535 20.8625 180.838 21.3481 181.229 21.7585C181.62 22.169 182.09 22.4958 182.611 22.7191C183.132 22.9424 183.693 23.0575 184.26 23.0575C184.827 23.0575 185.387 22.9424 185.908 22.7191C186.429 22.4958 186.9 22.169 187.29 21.7585C187.681 21.3481 187.985 20.8625 188.182 20.3312C188.38 19.8 188.468 19.2341 188.44 18.668Z" fill="#0B1636"/>
<path d="M4.89999 4.28099L8.41198 7.26899C8.53407 7.37746 8.68727 7.44465 8.84976 7.46099C9.01225 7.47732 9.17575 7.44198 9.31699 7.35999C13.979 4.45199 23.593 4.85499 22.872 16.653C22.846 17.085 27.936 13.244 28.187 13.629C28.187 13.629 27.244 4.42299 19.109 1.16899C14.666 -0.608008 10.559 -0.349008 5.01299 2.97899C4.90374 3.04447 4.81159 3.13494 4.7441 3.24296C4.67662 3.35098 4.63573 3.47347 4.6248 3.60037C4.61386 3.72727 4.6332 3.85495 4.68121 3.97293C4.72923 4.0909 4.80455 4.19579 4.90099 4.27899" fill="#D88B31"/>
<path d="M20.537 22.059C20.4149 21.9505 20.2617 21.8833 20.0992 21.867C19.9367 21.8507 19.7732 21.886 19.632 21.968C14.97 24.877 5.35696 24.473 6.07596 12.675C6.10296 12.238 1.00796 16.083 0.761963 15.698C0.761963 15.698 1.70496 24.904 9.83996 28.158C14.284 29.936 18.722 29.398 24.33 26.176L20.537 22.059Z" fill="#D88B31"/>
<path d="M24.517 33.034C24.1494 33.0345 23.7854 32.9603 23.4473 32.8159C23.1092 32.6715 22.8039 32.4599 22.55 32.194L17.598 27.016C17.0992 26.4944 16.8279 25.7961 16.8439 25.0745C16.86 24.353 17.162 23.6674 17.6835 23.1685C18.2051 22.6696 18.9034 22.3984 19.625 22.4144C20.3465 22.4304 21.0322 22.7324 21.531 23.254L26.483 28.432C26.8508 28.8172 27.0975 29.3019 27.1924 29.826C27.2873 30.3501 27.2264 30.8906 27.017 31.3803C26.8077 31.8701 26.4593 32.2877 26.0149 32.5813C25.5705 32.8749 25.0497 33.0316 24.517 33.032" fill="#D88B31"/>
<path d="M24.681 23.517L21.711 19.99C21.6063 19.8658 21.542 19.7127 21.5264 19.5511C21.5109 19.3894 21.5449 19.2268 21.624 19.085C22.818 16.914 26.943 7.749 15.449 0.184998C15.449 0.184998 24.649 1.174 27.863 9.325C29.618 13.777 29.339 17.883 25.984 23.413C25.918 23.5218 25.8271 23.6135 25.7188 23.6804C25.6105 23.7473 25.4879 23.7876 25.361 23.798C25.2342 23.8083 25.1066 23.7884 24.989 23.7399C24.8713 23.6914 24.7667 23.6157 24.684 23.519" fill="#EBBC42"/>
<path d="M4.26892 5.80998L7.23892 9.33698C7.34357 9.46117 7.40794 9.61427 7.42348 9.77592C7.43902 9.93758 7.40499 10.1001 7.32592 10.242C6.13192 12.413 2.00692 21.523 13.4999 29.088C13.4999 29.088 4.61892 28.662 1.08592 20.003C-0.722078 15.573 -0.389078 11.445 2.96592 5.91598C3.03192 5.80713 3.12279 5.71549 3.23108 5.64857C3.33937 5.58164 3.46198 5.54136 3.58885 5.53101C3.71573 5.52067 3.84325 5.54056 3.96095 5.58905C4.07864 5.63755 4.18316 5.71326 4.26592 5.80998" fill="#EBBC42"/>
</svg>
