<svg width="11" height="15" viewBox="0 0 11 15" fill="none" xmlns="http://www.w3.org/2000/svg">
<path d="M2.39524 14.5C2.01147 14.4978 1.63251 14.4183 1.28317 14.2667C0.905336 14.1077 0.583429 13.8483 0.355892 13.5194C0.128355 13.1905 0.00480644 12.806 0 12.4119V2.58949C0.00480644 2.19537 0.128355 1.81089 0.355892 1.48199C0.583429 1.15308 0.905336 0.89365 1.28317 0.734673C1.7179 0.538654 2.20158 0.463156 2.67909 0.516781C3.15659 0.570406 3.60871 0.750998 3.98392 1.03798L10.2164 5.94916C10.4608 6.1349 10.6582 6.37086 10.7939 6.63948C10.9295 6.9081 11 7.20247 11 7.50068C11 7.79889 10.9295 8.09326 10.7939 8.36188C10.6582 8.6305 10.4608 8.86646 10.2164 9.0522L3.98392 13.9634C3.53467 14.3112 2.97366 14.5007 2.39524 14.5Z" fill="#005C7D"/>
</svg>
