<svg width="11" height="15" viewBox="0 0 11 15" fill="none" xmlns="http://www.w3.org/2000/svg">
<path d="M8.60476 14.5C8.98853 14.4978 9.36749 14.4183 9.71683 14.2667C10.0947 14.1077 10.4166 13.8483 10.6441 13.5194C10.8716 13.1905 10.9952 12.806 11 12.4119V2.58949C10.9952 2.19537 10.8716 1.81089 10.6441 1.48199C10.4166 1.15308 10.0947 0.89365 9.71683 0.734673C9.2821 0.538654 8.79842 0.463156 8.32091 0.516781C7.84341 0.570406 7.39129 0.750998 7.01608 1.03798L0.783562 5.94916C0.539156 6.1349 0.34178 6.37086 0.206117 6.63948C0.0704546 6.9081 0 7.20247 0 7.50068C0 7.79889 0.0704546 8.09326 0.206117 8.36188C0.34178 8.6305 0.539156 8.86646 0.783562 9.0522L7.01608 13.9634C7.46533 14.3112 8.02634 14.5007 8.60476 14.5Z" fill="#005C7D" fill-opacity="0.5"/>
</svg>
