<svg width="66" height="66" viewBox="0 0 66 66" fill="none" xmlns="http://www.w3.org/2000/svg">
<path d="M64.1058 32.6066C64.1058 49.7863 50.1789 63.7132 32.9992 63.7132C15.8195 63.7132 1.89258 49.7863 1.89258 32.6066C1.89258 15.4269 15.8195 1.5 32.9992 1.5C50.1789 1.5 64.1058 15.4269 64.1058 32.6066Z" fill="#FFDA56" stroke="#DFB210" stroke-width="3"/>
<line x1="18.4299" y1="43.0337" x2="48.8547" y2="39.7485" stroke="#5A4703" stroke-width="3" stroke-linecap="round"/>
<path d="M20.7711 29.8894C23.0222 29.8894 24.847 28.0646 24.847 25.8136C24.847 23.5626 23.0222 21.7378 20.7711 21.7378C18.5201 21.7378 16.6953 23.5626 16.6953 25.8136C16.6953 28.0646 18.5201 29.8894 20.7711 29.8894Z" fill="#5A4703"/>
<path d="M45.2262 29.8894C47.4772 29.8894 49.302 28.0646 49.302 25.8136C49.302 23.5626 47.4772 21.7378 45.2262 21.7378C42.9752 21.7378 41.1504 23.5626 41.1504 25.8136C41.1504 28.0646 42.9752 29.8894 45.2262 29.8894Z" fill="#5A4703"/>
</svg>
