<svg width="39" height="36" viewBox="0 0 39 36" fill="none" xmlns="http://www.w3.org/2000/svg">
<path d="M18.6302 1.55947C19.0134 0.8841 19.9866 0.884096 20.3698 1.55947L25.0314 9.77577C25.4587 10.529 26.1906 11.0607 27.039 11.2344L36.2937 13.1289C37.0544 13.2846 37.3551 14.2101 36.8312 14.7833L30.4576 21.7557C29.8733 22.3948 29.5937 23.2553 29.6907 24.1158L30.7488 33.503C30.8358 34.2746 30.0485 34.8466 29.3415 34.5254L20.7408 30.6183C19.9524 30.2602 19.0476 30.2602 18.2592 30.6183L9.65847 34.5254C8.9515 34.8466 8.16419 34.2746 8.25117 33.503L9.30928 24.1158C9.40628 23.2553 9.1267 22.3948 8.54242 21.7557L2.16877 14.7833C1.64486 14.2101 1.94558 13.2846 2.70632 13.1289L11.961 11.2344C12.8094 11.0607 13.5413 10.529 13.9686 9.77577L18.6302 1.55947Z" fill="white" stroke="#A8E3DF" stroke-width="2"/>
</svg>
