<svg width="21" height="21" viewBox="0 0 21 21" fill="none" xmlns="http://www.w3.org/2000/svg">
<path fill-rule="evenodd" clip-rule="evenodd" d="M11.8828 1C11.8828 0.447715 11.4351 0 10.8828 0C10.3305 0 9.88281 0.447715 9.88281 1V9.11768L1 9.11768C0.447715 9.11768 0 9.56539 0 10.1177C0 10.67 0.447715 11.1177 1 11.1177L9.88281 11.1177V20C9.88281 20.5523 10.3305 21 10.8828 21C11.4351 21 11.8828 20.5523 11.8828 20V11.1177L20 11.1177C20.5523 11.1177 21 10.67 21 10.1177C21 9.56539 20.5523 9.11768 20 9.11768L11.8828 9.11768V1Z" fill="#09D1D0"/>
</svg>
