<svg width="47" height="47" viewBox="0 0 47 47" fill="none" xmlns="http://www.w3.org/2000/svg">
<path d="M23.789 21.0672C23.7547 21.0233 23.7108 20.9878 23.6607 20.9634C23.6106 20.939 23.5556 20.9263 23.4999 20.9263C23.4441 20.9263 23.3891 20.939 23.339 20.9634C23.2889 20.9878 23.2451 21.0233 23.2107 21.0672L18.0701 27.571C18.0277 27.6251 18.0014 27.69 17.9942 27.7584C17.987 27.8267 17.9992 27.8958 18.0293 27.9575C18.0595 28.0193 18.1064 28.0713 18.1648 28.1077C18.2231 28.144 18.2905 28.1632 18.3592 28.1631H21.7511V39.2888C21.7511 39.4908 21.9164 39.656 22.1183 39.656H24.8722C25.0742 39.656 25.2394 39.4908 25.2394 39.2888V28.1676H28.6405C28.948 28.1676 29.1178 27.8142 28.9297 27.5756L23.789 21.0672Z" fill="#005C7D"/>
<path d="M37.242 16.831C35.1398 11.2864 29.7835 7.34375 23.5092 7.34375C17.2349 7.34375 11.8785 11.2818 9.77637 16.8264C5.84287 17.8591 2.9375 21.4437 2.9375 25.7031C2.9375 30.7749 7.04541 34.8828 12.1126 34.8828H13.9531C14.1551 34.8828 14.3203 34.7176 14.3203 34.5156V31.7617C14.3203 31.5598 14.1551 31.3945 13.9531 31.3945H12.1126C10.5658 31.3945 9.11084 30.7795 8.02764 29.6642C6.94902 28.5534 6.37529 27.0571 6.42578 25.5058C6.46709 24.294 6.88018 23.1558 7.62832 22.1965C8.39482 21.2188 9.46885 20.5074 10.6622 20.1907L12.4018 19.7363L13.0397 18.0564C13.4345 17.01 13.9853 16.0323 14.6783 15.1465C15.3625 14.2685 16.173 13.4967 17.0834 12.8562C18.9698 11.5297 21.1913 10.8274 23.5092 10.8274C25.8271 10.8274 28.0485 11.5297 29.935 12.8562C30.8483 13.4987 31.6562 14.2698 32.34 15.1465C33.0331 16.0323 33.5839 17.0146 33.9786 18.0564L34.612 19.7317L36.347 20.1907C38.8347 20.8608 40.5742 23.1236 40.5742 25.7031C40.5742 27.2224 39.9821 28.6544 38.9081 29.7284C38.3814 30.2582 37.7548 30.6783 37.0647 30.9643C36.3745 31.2502 35.6345 31.3965 34.8874 31.3945H33.0469C32.8449 31.3945 32.6797 31.5598 32.6797 31.7617V34.5156C32.6797 34.7176 32.8449 34.8828 33.0469 34.8828H34.8874C39.9546 34.8828 44.0625 30.7749 44.0625 25.7031C44.0625 21.4483 41.1663 17.8683 37.242 16.831Z" fill="#005C7D"/>
</svg>
